<?xml version="1.0" encoding="UTF-8" standalone="no"?>
<svg
   xmlns:dc="http://purl.org/dc/elements/1.1/"
   xmlns:cc="http://creativecommons.org/ns#"
   xmlns:rdf="http://www.w3.org/1999/02/22-rdf-syntax-ns#"
   xmlns:svg="http://www.w3.org/2000/svg"
   xmlns="http://www.w3.org/2000/svg"
   xml:space="preserve"
   style="enable-background:new 0 0 100 100;"
   viewBox="0 0 100 100"
   y="0px"
   x="0px"
   id="Layer_1"
   version="1.1"><metadata
     id="metadata733"><rdf:RDF><cc:Work
         rdf:about=""><dc:format>image/svg+xml</dc:format><dc:type
           rdf:resource="http://purl.org/dc/dcmitype/StillImage" /><dc:title></dc:title></cc:Work></rdf:RDF></metadata><defs
     id="defs731" /><style
     id="style708"
     type="text/css">
	.st0{fill:none;stroke:#0D1137;stroke-width:1.5;stroke-linecap:round;stroke-linejoin:round;stroke-miterlimit:10;}
</style><g
     transform="matrix(1.9457155,0,0,1.9457155,-47.584911,-47.280814)"
     id="g726"><g
       id="g716" /><g
       id="g724"><path
         d="M 34.639999,73.879997 29.48,68.730003 M 34.64,63.57 29.48,68.73 H 70.76 L 65.6,63.57 m -2e-6,10.309997 5.160004,-5.149994 M 39.8,34.29 c 0,1.42 -1.15,2.58 -2.58,2.58 -1.42,0 -2.58,-1.16 -2.58,-2.58 0,-1.42 1.16,-2.58 2.58,-2.58 1.43,0 2.58,1.15 2.58,2.58 z M 29.48,57.5 39.8,42.03 50.12,52.35 60.44,36.87 70.76,47.19 M 29.48,26.549999 H 70.759998 V 57.509998 H 29.48 Z"
         style="fill:none;stroke:#0d1137;stroke-width:1.5;stroke-linecap:round;stroke-linejoin:round;stroke-miterlimit:10"
         id="line722" /></g></g></svg>